<svg width="150" height="58" viewBox="0 0 150 58" fill="none" xmlns="http://www.w3.org/2000/svg">
<rect width="150" height="58" fill="#C4C4C4"/>
<path d="M48.2422 35.1602H56.3281V37H45.9805V19.9375H48.2422V35.1602ZM71.2461 29.0195C71.2461 30.6914 70.9648 32.1523 70.4023 33.4023C69.8398 34.6445 69.043 35.5938 68.0117 36.25C66.9805 36.9062 65.7773 37.2344 64.4023 37.2344C63.0586 37.2344 61.8672 36.9062 60.8281 36.25C59.7891 35.5859 58.9805 34.6445 58.4023 33.4258C57.832 32.1992 57.5391 30.7812 57.5234 29.1719V27.9414C57.5234 26.3008 57.8086 24.8516 58.3789 23.5938C58.9492 22.3359 59.7539 21.375 60.793 20.7109C61.8398 20.0391 63.0352 19.7031 64.3789 19.7031C65.7461 19.7031 66.9492 20.0352 67.9883 20.6992C69.0352 21.3555 69.8398 22.3125 70.4023 23.5703C70.9648 24.8203 71.2461 26.2773 71.2461 27.9414V29.0195ZM69.0078 27.918C69.0078 25.8945 68.6016 24.3438 67.7891 23.2656C66.9766 22.1797 65.8398 21.6367 64.3789 21.6367C62.957 21.6367 61.8359 22.1797 61.0156 23.2656C60.2031 24.3438 59.7852 25.8438 59.7617 27.7656V29.0195C59.7617 30.9805 60.1719 32.5234 60.9922 33.6484C61.8203 34.7656 62.957 35.3242 64.4023 35.3242C65.8555 35.3242 66.9805 34.7969 67.7773 33.7422C68.5742 32.6797 68.9844 31.1602 69.0078 29.1836V27.918ZM87.2188 34.7617C86.6406 35.5898 85.832 36.2109 84.793 36.625C83.7617 37.0312 82.5586 37.2344 81.1836 37.2344C79.793 37.2344 78.5586 36.9102 77.4805 36.2617C76.4023 35.6055 75.5664 34.6758 74.9727 33.4727C74.3867 32.2695 74.0859 30.875 74.0703 29.2891V27.8008C74.0703 25.2305 74.668 23.2383 75.8633 21.8242C77.0664 20.4102 78.7539 19.7031 80.9258 19.7031C82.707 19.7031 84.1406 20.1602 85.2266 21.0742C86.3125 21.9805 86.9766 23.2695 87.2188 24.9414H84.9688C84.5469 22.6836 83.2031 21.5547 80.9375 21.5547C79.4297 21.5547 78.2852 22.0859 77.5039 23.1484C76.7305 24.2031 76.3398 25.7344 76.332 27.7422V29.1367C76.332 31.0508 76.7695 32.5742 77.6445 33.707C78.5195 34.832 79.7031 35.3945 81.1953 35.3945C82.0391 35.3945 82.7773 35.3008 83.4102 35.1133C84.043 34.9258 84.5664 34.6094 84.9805 34.1641V30.332H81.0312V28.5039H87.2188V34.7617ZM104.105 29.0195C104.105 30.6914 103.824 32.1523 103.262 33.4023C102.699 34.6445 101.902 35.5938 100.871 36.25C99.8398 36.9062 98.6367 37.2344 97.2617 37.2344C95.918 37.2344 94.7266 36.9062 93.6875 36.25C92.6484 35.5859 91.8398 34.6445 91.2617 33.4258C90.6914 32.1992 90.3984 30.7812 90.3828 29.1719V27.9414C90.3828 26.3008 90.668 24.8516 91.2383 23.5938C91.8086 22.3359 92.6133 21.375 93.6523 20.7109C94.6992 20.0391 95.8945 19.7031 97.2383 19.7031C98.6055 19.7031 99.8086 20.0352 100.848 20.6992C101.895 21.3555 102.699 22.3125 103.262 23.5703C103.824 24.8203 104.105 26.2773 104.105 27.9414V29.0195ZM101.867 27.918C101.867 25.8945 101.461 24.3438 100.648 23.2656C99.8359 22.1797 98.6992 21.6367 97.2383 21.6367C95.8164 21.6367 94.6953 22.1797 93.875 23.2656C93.0625 24.3438 92.6445 25.8438 92.6211 27.7656V29.0195C92.6211 30.9805 93.0312 32.5234 93.8516 33.6484C94.6797 34.7656 95.8164 35.3242 97.2617 35.3242C98.7148 35.3242 99.8398 34.7969 100.637 33.7422C101.434 32.6797 101.844 31.1602 101.867 29.1836V27.918Z" fill="black"/>
</svg>
